<svg xmlns="http://www.w3.org/2000/svg" width="420" height="520" viewBox="0 0 420 520"><defs><marker id="a" viewBox="0 0 10 10" refX="9" refY="5" markerWidth="7" markerHeight="7" orient="auto-start-reverse"><path d="M0 0L10 5L0 10" fill="#276655"/></marker></defs><rect width="420" height="520" fill="#faf8f2"/><g font-family="PingFang SC,Microsoft YaHei,sans-serif" font-size="18" fill="#243b36"><text x="210" y="32" text-anchor="middle" font-size="20" fill="#243b36">IP变了，网站仍可能认得账号</text><g transform="translate(80,106)"><rect x="-24" y="-35" width="48" height="70" rx="9" fill="#e2ece2" stroke="#276655" stroke-width="2"/><rect x="-16" y="-22" width="32" height="40" rx="3" fill="#fffefa"/><path d="M-7 26H7" stroke="#276655" stroke-width="2"/></g><text x="80" y="168" text-anchor="middle" font-size="18" fill="#243b36">同一设备</text><path d="M113 107H158V79H217" fill="none" stroke="#276655" stroke-width="3" marker-end="url(#a)"/><path d="M159 107V153H217" fill="none" stroke="#276655" stroke-width="3" marker-end="url(#a)"/><text x="303" y="86" text-anchor="middle" font-size="19" fill="#243b36">家中出口A</text><text x="303" y="160" text-anchor="middle" font-size="19" fill="#243b36">手机网络B</text><text x="210" y="219" text-anchor="middle" font-size="18" fill="#243b36">换网络，来源可能改变</text><path d="M57 265H363V331H82L57 351Z" fill="#e3ece1"/><text x="210" y="292" text-anchor="middle" font-size="20" fill="#243b36">浏览器登录标记还在</text><text x="210" y="320" text-anchor="middle" font-size="17" fill="#243b36">后续请求仍可携带它</text><path d="M210 357V394" fill="none" stroke="#276655" stroke-width="3" marker-end="url(#a)"/><circle cx="210" cy="435" r="26" fill="#b38a52"/><text x="210" y="442" text-anchor="middle" font-size="20" fill="#fff">号</text><text x="210" y="490" text-anchor="middle" font-size="19" fill="#243b36">登录关联的账号仍相同</text></g></svg>