<svg xmlns="http://www.w3.org/2000/svg" width="420" height="520" viewBox="0 0 420 520"><defs><marker id="a" viewBox="0 0 10 10" refX="9" refY="5" markerWidth="7" markerHeight="7" orient="auto-start-reverse"><path d="M0 0L10 5L0 10" fill="#276655"/></marker></defs><rect width="420" height="520" fill="#faf8f2"/><g font-family="PingFang SC,Microsoft YaHei,sans-serif" font-size="18" fill="#243b36"><text x="210" y="31" text-anchor="middle" font-size="20" fill="#243b36">内容怎样借信号移动</text><text x="88" y="86" text-anchor="middle" font-size="25" fill="#243b36">“你好”</text><path d="M147 78H230" fill="none" stroke="#276655" stroke-width="3" marker-end="url(#a)"/><text x="299" y="86" text-anchor="middle" font-size="20" fill="#243b36">数字记录</text><path d="M299 109V145H210V170" fill="none" stroke="#276655" stroke-width="3" marker-end="url(#a)"/><text x="210" y="191" text-anchor="middle" font-size="18" fill="#243b36">用信号变化传递数据</text><text x="66" y="239" text-anchor="middle" font-size="19" fill="#243b36">电</text><path d="M114 232H143V214H163V248H183V214H208V232H364" fill="none" stroke="#276655" stroke-width="3"/><text x="66" y="296" text-anchor="middle" font-size="19" fill="#243b36">光</text><rect x="122" y="279" width="17" height="17" rx="5" fill="#b38a52"/><rect x="158" y="279" width="35" height="17" rx="5" fill="#b38a52"/><rect x="217" y="279" width="17" height="17" rx="5" fill="#b38a52"/><rect x="251" y="279" width="44" height="17" rx="5" fill="#b38a52"/><rect x="319" y="279" width="17" height="17" rx="5" fill="#b38a52"/><text x="66" y="353" text-anchor="middle" font-size="17" fill="#243b36">无线电</text><path d="M125 344Q137 302 151 344T177 344T203 344T229 344T255 344T281 344T307 344T333 344" fill="none" stroke="#276655" stroke-width="3"/><path d="M210 373V411" fill="none" stroke="#276655" stroke-width="3" marker-end="url(#a)"/><text x="210" y="439" text-anchor="middle" font-size="19" fill="#243b36">接收端按约定还原</text><text x="210" y="483" text-anchor="middle" font-size="24" fill="#243b36">又能显示“你好”</text></g></svg>